<svg id="edSjopR3myh1" xmlns="http://www.w3.org/2000/svg" xmlns:xlink="http://www.w3.org/1999/xlink" viewBox="0 0 414.3 341" shape-rendering="geometricPrecision" text-rendering="geometricPrecision"><style><![CDATA[#edSjopR3myh2_to {animation: edSjopR3myh2_to__to 5000ms linear infinite alternate forwards}@keyframes edSjopR3myh2_to__to { 0% {transform: translate(303.155701px,48.813242px);animation-timing-function: cubic-bezier(0.215,0.61,0.355,1)} 16.666667% {transform: translate(305.821981px,46.079634px);animation-timing-function: cubic-bezier(0.215,0.61,0.355,1)} 46.666667% {transform: translate(300.936871px,47.024879px);animation-timing-function: cubic-bezier(0.215,0.61,0.355,1)} 80% {transform: translate(303.919994px,48.496452px);animation-timing-function: cubic-bezier(0.215,0.61,0.355,1)} 100% {transform: translate(304.848468px,46.079634px)}} #edSjopR3myh2_ts {animation: edSjopR3myh2_ts__ts 5000ms linear infinite alternate forwards}@keyframes edSjopR3myh2_ts__ts { 0% {transform: scale(1,1);animation-timing-function: cubic-bezier(0.47,0,0.745,0.715)} 50% {transform: scale(1.322574,1.322578);animation-timing-function: cubic-bezier(0.47,0,0.745,0.715)} 100% {transform: scale(1,1)}} #edSjopR3myh5_to {animation: edSjopR3myh5_to__to 5000ms linear infinite alternate forwards}@keyframes edSjopR3myh5_to__to { 0% {transform: translate(401.249985px,303px);animation-timing-function: cubic-bezier(0.445,0.05,0.55,0.95)} 20% {transform: translate(397.632496px,297.919302px);animation-timing-function: cubic-bezier(0.445,0.05,0.55,0.95)} 36.666667% {transform: translate(390.586183px,304.256385px);animation-timing-function: cubic-bezier(0.445,0.05,0.55,0.95)} 66.666667% {transform: translate(400.275533px,300.96593px);animation-timing-function: cubic-bezier(0.445,0.05,0.55,0.95)} 83.333333% {transform: translate(402.349973px,306.1px);animation-timing-function: cubic-bezier(0.445,0.05,0.55,0.95)} 100% {transform: translate(397.84549px,303.580805px)}} #edSjopR3myh8_to {animation: edSjopR3myh8_to__to 5000ms linear infinite alternate forwards}@keyframes edSjopR3myh8_to__to { 0% {transform: translate(106.200001px,31.550001px);animation-timing-function: cubic-bezier(0.445,0.05,0.55,0.95)} 26.666667% {transform: translate(102.311946px,29.330414px);animation-timing-function: cubic-bezier(0.445,0.05,0.55,0.95)} 43.333333% {transform: translate(109.420117px,30.023364px);animation-timing-function: cubic-bezier(0.445,0.05,0.55,0.95)} 70% {transform: translate(102.680737px,34.712815px);animation-timing-function: cubic-bezier(0.445,0.05,0.55,0.95)} 100% {transform: translate(110.062403px,33.506986px)}} #edSjopR3myh12_to {animation: edSjopR3myh12_to__to 5000ms linear infinite alternate forwards}@keyframes edSjopR3myh12_to__to { 0% {transform: translate(383.911972px,141.140133px);animation-timing-function: cubic-bezier(0.42,0,0.58,1)} 20% {transform: translate(375.795223px,138.613516px);animation-timing-function: cubic-bezier(0.42,0,0.58,1)} 50% {transform: translate(372.301071px,142.792303px);animation-timing-function: cubic-bezier(0.42,0,0.58,1)} 66.666667% {transform: translate(381.755385px,144.141247px);animation-timing-function: cubic-bezier(0.42,0,0.58,1)} 80% {transform: translate(375.304792px,132.460615px);animation-timing-function: cubic-bezier(0.42,0,0.58,1)} 100% {transform: translate(383.769465px,140.687582px)}} #edSjopR3myh12_tr {animation: edSjopR3myh12_tr__tr 5000ms linear infinite alternate forwards}@keyframes edSjopR3myh12_tr__tr { 0% {transform: rotate(0deg);animation-timing-function: cubic-bezier(0.42,0,0.58,1)} 20% {transform: rotate(-4.794526deg);animation-timing-function: cubic-bezier(0.42,0,0.58,1)} 50% {transform: rotate(-9.257965deg);animation-timing-function: cubic-bezier(0.42,0,0.58,1)} 66.666667% {transform: rotate(0.619552deg);animation-timing-function: cubic-bezier(0.42,0,0.58,1)} 80% {transform: rotate(-7.703554deg);animation-timing-function: cubic-bezier(0.42,0,0.58,1)} 100% {transform: rotate(-1.527319deg)}} #edSjopR3myh12_ts {animation: edSjopR3myh12_ts__ts 5000ms linear infinite alternate forwards}@keyframes edSjopR3myh12_ts__ts { 0% {transform: scale(1,1)} 40% {transform: scale(1,1);animation-timing-function: cubic-bezier(0.42,0,0.58,1)} 66.666667% {transform: scale(0.814547,0.814544);animation-timing-function: cubic-bezier(0.42,0,0.58,1)} 90% {transform: scale(0.939548,0.939546)} 100% {transform: scale(0.939548,0.939546)}} #edSjopR3myh20_tr {animation: edSjopR3myh20_tr__tr 5000ms linear infinite alternate forwards}@keyframes edSjopR3myh20_tr__tr { 0% {transform: translate(73.912402px,232.389026px) rotate(0deg)} 100% {transform: translate(73.912402px,232.389026px) rotate(360deg)}} #edSjopR3myh38_to {animation: edSjopR3myh38_to__to 5000ms linear infinite alternate forwards}@keyframes edSjopR3myh38_to__to { 0% {transform: translate(10.054192px,80.679955px)} 23.333333% {transform: translate(13.520014px,77.121884px)} 73.333333% {transform: translate(14.337947px,81.788469px)} 100% {transform: translate(15.3209px,81.254265px)}} #edSjopR3myh38_tr {animation: edSjopR3myh38_tr__tr 5000ms linear infinite alternate forwards}@keyframes edSjopR3myh38_tr__tr { 0% {transform: rotate(0deg)} 30% {transform: rotate(4.320989deg)} 73.333333% {transform: rotate(-1.717379deg)} 100% {transform: rotate(-1.776768deg)}} #edSjopR3myh38_ts {animation: edSjopR3myh38_ts__ts 5000ms linear infinite alternate forwards}@keyframes edSjopR3myh38_ts__ts { 0% {transform: scale(1,1)} 23.333333% {transform: scale(0.902337,0.902339)} 100% {transform: scale(0.97392,0.973921)}} #edSjopR3myh38 {animation: edSjopR3myh38_c_o 5000ms linear infinite alternate forwards}@keyframes edSjopR3myh38_c_o { 0% {opacity: 0.31} 43.333333% {opacity: 1} 73.333333% {opacity: 0.54} 100% {opacity: 1}} #edSjopR3myh46_to {animation: edSjopR3myh46_to__to 5000ms linear infinite alternate forwards}@keyframes edSjopR3myh46_to__to { 0% {transform: translate(208.382516px,170.481308px)} 16.666667% {transform: translate(208.382516px,170.481308px);animation-timing-function: cubic-bezier(0.445,0.05,0.55,0.95)} 30% {transform: translate(212.225318px,166.289898px);animation-timing-function: cubic-bezier(0.445,0.05,0.55,0.95)} 43.333333% {transform: translate(205.451057px,166.289898px);animation-timing-function: cubic-bezier(0.445,0.05,0.55,0.95)} 63.333333% {transform: translate(208.032716px,170.5px);animation-timing-function: cubic-bezier(0.445,0.05,0.55,0.95)} 83.333333% {transform: translate(208.928999px,161.685496px);animation-timing-function: cubic-bezier(0.445,0.05,0.55,0.95)} 100% {transform: translate(209.016767px,169.550006px)}} #edSjopR3myh46_ts {animation: edSjopR3myh46_ts__ts 5000ms linear infinite alternate forwards}@keyframes edSjopR3myh46_ts__ts { 0% {transform: scale(1,1);animation-timing-function: cubic-bezier(0.445,0.05,0.55,0.95)} 26.666667% {transform: scale(0.936465,0.936465);animation-timing-function: cubic-bezier(0.445,0.05,0.55,0.95)} 66.666667% {transform: scale(0.965737,0.965737);animation-timing-function: cubic-bezier(0.445,0.05,0.55,0.95)} 86.666667% {transform: scale(0.940854,0.940854);animation-timing-function: cubic-bezier(0.445,0.05,0.55,0.95)} 100% {transform: scale(0.986265,0.986265)}} #edSjopR3myh67 {animation: edSjopR3myh67_c_o 5000ms linear infinite alternate forwards}@keyframes edSjopR3myh67_c_o { 0% {opacity: 1;animation-timing-function: cubic-bezier(0.645,0.045,0.355,1)} 33.333333% {opacity: 0.3;animation-timing-function: cubic-bezier(0.645,0.045,0.355,1)} 60% {opacity: 1;animation-timing-function: cubic-bezier(0.645,0.045,0.355,1)} 90% {opacity: 0.13;animation-timing-function: cubic-bezier(0.645,0.045,0.355,1)} 100% {opacity: 0.9}} #edSjopR3myh89_to {animation: edSjopR3myh89_to__to 5000ms linear infinite alternate forwards}@keyframes edSjopR3myh89_to__to { 0% {transform: translate(216.598488px,316.300003px);animation-timing-function: cubic-bezier(0.86,0,0.07,1)} 23.333333% {transform: translate(218.43217px,314.5px);animation-timing-function: cubic-bezier(0.86,0,0.07,1)} 53.333333% {transform: translate(214.082591px,315.279486px);animation-timing-function: cubic-bezier(0.86,0,0.07,1)} 80% {transform: translate(218.598176px,319.54993px);animation-timing-function: cubic-bezier(0.86,0,0.07,1)} 100% {transform: translate(212.76541px,316.3px)}} #edSjopR3myh89 {animation: edSjopR3myh89_c_o 5000ms linear infinite alternate forwards}@keyframes edSjopR3myh89_c_o { 0% {opacity: 1;animation-timing-function: cubic-bezier(0.645,0.045,0.355,1)} 13.333333% {opacity: 0.3;animation-timing-function: cubic-bezier(0.645,0.045,0.355,1)} 40% {opacity: 1;animation-timing-function: cubic-bezier(0.645,0.045,0.355,1)} 80% {opacity: 0.13;animation-timing-function: cubic-bezier(0.645,0.045,0.355,1)} 100% {opacity: 0.9}} #edSjopR3myh95_to {animation: edSjopR3myh95_to__to 5000ms linear infinite alternate forwards}@keyframes edSjopR3myh95_to__to { 0% {transform: translate(287.5px,216.699997px);animation-timing-function: cubic-bezier(0.455,0.03,0.515,0.955)} 16.666667% {transform: translate(284.596893px,214.127282px);animation-timing-function: cubic-bezier(0.455,0.03,0.515,0.955)} 36.666667% {transform: translate(290.771517px,212.710695px);animation-timing-function: cubic-bezier(0.455,0.03,0.515,0.955)} 63.333333% {transform: translate(287.857367px,219.753503px);animation-timing-function: cubic-bezier(0.455,0.03,0.515,0.955)} 83.333333% {transform: translate(286.239244px,213.281024px);animation-timing-function: cubic-bezier(0.455,0.03,0.515,0.955)} 100% {transform: translate(292.736878px,216.338274px)}} #edSjopR3myh95 {animation: edSjopR3myh95_c_o 5000ms linear infinite alternate forwards}@keyframes edSjopR3myh95_c_o { 0% {opacity: 0.13;animation-timing-function: cubic-bezier(0.55,0.085,0.68,0.53)} 10% {opacity: 0.79} 20% {opacity: 0.3} 26.666667% {opacity: 0.63;animation-timing-function: cubic-bezier(0.445,0.05,0.55,0.95)} 36.666667% {opacity: 0.8;animation-timing-function: cubic-bezier(0.445,0.05,0.55,0.95)} 50% {opacity: 0.16;animation-timing-function: cubic-bezier(0.445,0.05,0.55,0.95)} 63.333333% {opacity: 0.1;animation-timing-function: cubic-bezier(0.445,0.05,0.55,0.95)} 70% {opacity: 0.8;animation-timing-function: cubic-bezier(0.445,0.05,0.55,0.95)} 76.666667% {opacity: 0.98;animation-timing-function: cubic-bezier(0.55,0.085,0.68,0.53)} 93.333333% {opacity: 0.54;animation-timing-function: cubic-bezier(0.55,0.085,0.68,0.53)} 100% {opacity: 1}} #edSjopR3myh99_to {animation: edSjopR3myh99_to__to 5000ms linear infinite alternate forwards}@keyframes edSjopR3myh99_to__to { 0% {transform: translate(199.257195px,126.85302px);animation-timing-function: cubic-bezier(0.645,0.045,0.355,1)} 16.666667% {transform: translate(203.639229px,120.421116px);animation-timing-function: cubic-bezier(0.645,0.045,0.355,1)} 33.333333% {transform: translate(191.700001px,117.945396px);animation-timing-function: cubic-bezier(0.645,0.045,0.355,1)} 46.666667% {transform: translate(186.477895px,117.945396px);animation-timing-function: cubic-bezier(0.645,0.045,0.355,1)} 100% {transform: translate(197.226235px,114.507115px)}} #edSjopR3myh99_tr {animation: edSjopR3myh99_tr__tr 5000ms linear infinite alternate forwards}@keyframes edSjopR3myh99_tr__tr { 0% {transform: rotate(0deg)} 16.666667% {transform: rotate(0deg);animation-timing-function: cubic-bezier(0.645,0.045,0.355,1)} 26.666667% {transform: rotate(-7.662014deg);animation-timing-function: cubic-bezier(0.645,0.045,0.355,1)} 46.666667% {transform: rotate(-5.464626deg);animation-timing-function: cubic-bezier(0.645,0.045,0.355,1)} 100% {transform: rotate(5.140525deg)}} #edSjopR3myh104_to {animation: edSjopR3myh104_to__to 5000ms linear infinite alternate forwards}@keyframes edSjopR3myh104_to__to { 0% {transform: translate(219.864433px,150.276398px);animation-timing-function: cubic-bezier(0.645,0.045,0.355,1)} 33.333333% {transform: translate(216.669791px,142.57103px);animation-timing-function: cubic-bezier(0.645,0.045,0.355,1)} 50% {transform: translate(210.617469px,141.9px);animation-timing-function: cubic-bezier(0.645,0.045,0.355,1)} 100% {transform: translate(213.398564px,138.905716px)}} #edSjopR3myh107 {animation: edSjopR3myh107_c_o 5000ms linear infinite alternate forwards}@keyframes edSjopR3myh107_c_o { 0% {opacity: 0;animation-timing-function: cubic-bezier(0.215,0.61,0.355,1)} 100% {opacity: 1}} #edSjopR3myh108_tr {animation: edSjopR3myh108_tr__tr 5000ms linear infinite alternate forwards}@keyframes edSjopR3myh108_tr__tr { 0% {transform: translate(219.949669px,150.490242px) rotate(0deg);animation-timing-function: cubic-bezier(0.645,0.045,0.355,1)} 33.333333% {transform: translate(219.949669px,150.490242px) rotate(4.136704deg);animation-timing-function: cubic-bezier(0.645,0.045,0.355,1)} 73.333333% {transform: translate(219.949669px,150.490242px) rotate(-3.217505deg);animation-timing-function: cubic-bezier(0.645,0.045,0.355,1)} 100% {transform: translate(219.949669px,150.490242px) rotate(2.99212deg)}} #edSjopR3myh108_ts {animation: edSjopR3myh108_ts__ts 5000ms linear infinite alternate forwards}@keyframes edSjopR3myh108_ts__ts { 0% {transform: scale(1,1);animation-timing-function: cubic-bezier(0.645,0.045,0.355,1)} 26.666667% {transform: scale(1.105533,1.105542);animation-timing-function: cubic-bezier(0.645,0.045,0.355,1)} 46.666667% {transform: scale(0.910972,0.910982);animation-timing-function: cubic-bezier(0.645,0.045,0.355,1)} 100% {transform: scale(0.931194,0.931205)}}]]></style><g id="edSjopR3myh2_to" transform="translate(303.155701,48.813242)"><g id="edSjopR3myh2_ts" transform="scale(1,1)"><g transform="translate(-303.155701,-48.813242)"><path d="M290.9,49.9c0-4.2,0-7.8,0-12c0-1.7-.7-3.8,1-4.6c1.6-.7,2.7.3,4,1.3c5.9,4.3,11.8,8.5,17.8,12.7c2.1,1.5,2.7,2.3.3,4.4-4.7,4-10.1,7-15.1,10.4-.3.3-.8.4-1.1.1c0,0-.1-.1-.1-.1C300,61,302,59,307,56c11.2-6.7,6-7-1-13-2.9-2.2-5-4-9-7-2.3-1.7-4.9-2.5-5,0-.1,3.1,0,9,0,13-.1.9.1,1.4-1.1.9Z" fill="#afafaf"/><path d="M297.9,61.9c.3,0,.6.1.9.1-2.4,1.4-2.5,3.7-5.9,1.9-3.1-1.6-1.8-3.4-2-6s0-5.4,0-8c.7-.3.2-.6.9-.9c2.1,2.3.4,5.4.1,7.9-.4,3.9,1.9,5.4,6,5Z" fill="#afafaf"/></g></g></g><g id="edSjopR3myh5_to" transform="translate(401.249985,303)"><g transform="translate(-400.036183,-307.214927)"><path d="M411.8,289c-.1,8.3-4.1,16.1-10.7,21.2c5.3-6.2,8.5-13.4,10.7-21.2Z" fill="#41236f"/><path d="M397.4,313.9c-1.7,1.3-3.3,2.8-6.7,3.1c2.3-2.2,4.2-3.2,6.7-3.1Z" fill="#442671"/></g></g><g id="edSjopR3myh8_to" transform="translate(106.200001,31.550001)"><g transform="translate(-106.200001,-31.550001)"><path d="M106,28c5.3-4.1,10.6-8.4,17.4-9.8-5.7,3.3-11.1,6.9-16.4,10.9-.6-.1-1-.6-1-1.1Z" fill="#41226e"/><path d="M106,28l1,1.1c-5.3,4-10.3,8.5-14.9,13.3-.4-.3-.6-.8-.3-1.3c0-.1.1-.1.1-.2C96,36,100.7,31.6,106,28Z" fill="#3e1e6c"/><path d="M91.9,40.9l.2,1.5c-.3,1.3-.9,2.4-2.4,2.5-.2,0-.7-.3-.7-.5.1-1.9,1.7-2.6,2.9-3.5Z" fill="#4a2c75"/></g></g><g id="edSjopR3myh12_to" transform="translate(383.911972,141.140133)"><g id="edSjopR3myh12_tr" transform="rotate(0)"><g id="edSjopR3myh12_ts" transform="scale(1,1)"><g transform="translate(-383.911972,-141.140133)"><path d="M408.8,138.9c-7.2-9.3-14.3-18.5-21.4-27.8-6.5-8.5-16.5-9.6-24.7-2.5-2.8,2.4-5.9,4.6-9.2,7.1-.2-3.2,2.6-3.3,3.5-4.8c2-1.5,4-2.9,5.9-4.5c8.3-6.5,16.8-6.2,23.7,1.8c7.1,8.2,13.6,17.1,20.3,25.6c1,1.3,2,2.6,3,3.9.3,1.2-.2,1.5-1.1,1.2Z" fill="#afafaf"/><path d="M408.9,138.9l1-1c7.3,9.6,5.6,18.6-5.2,27-1.1.4-1.2-.1-1-1c10.3-8.2,11.7-15.2,5.2-25Z" fill="#afafaf"/><path d="M403.8,163.9c.3.3.7.6,1,1-4.3,3.4-8.1,7.4-13,10-.3.4-.7.4-1,0c1.4-1.9-1.4-2-2-3.5c7.4,1.5,10-5.2,15-7.5Z" fill="#afafaf"/><path d="M390.8,174.9c.3,0,.7,0,1,0-1,2.3-4.2,2.5-5,5-.8.2-1.7.7-2.2.5-.8-.4-.2-1.2.4-1.4c2-1.2,3-4,5.8-4.1Z" fill="#afafaf"/><path d="M396.8,153.9c.5-3.5-.2-7-2-10c4.6,2.4,5.3,6,2,10Z" fill="#afafaf"/><path d="M391.8,154.9c2.1,1.9,3.3-.8,5-1-.8,3.2-3.4,2.9-5.8,3-.2-.8.1-1.6.8-2Z" fill="#afafaf"/><ellipse rx="7.472852" ry="7.826259" transform="matrix(.962057 0 0 1 390.939362 149.399669)" fill="#afafaf" stroke-width="0"/></g></g></g></g><g id="edSjopR3myh20_tr" transform="translate(73.912402,232.389026) rotate(0)"><g transform="translate(-75.05,-234.086719)"><path d="M94.9,241.9c-3.8-2-4.4-3.7.1-5.7c2.9-1.3,2.7-3.9-.1-5-3.4-1.4-3.7-2.9-1.3-5.4c1.9-1.9-.2-3.3-.7-4.8.2-.3.6-.4.9-.2.1,0,.1.1.2.2c2,1.5,3.6,3.1,1.1,5.5-1.2,1.1-1.1,2.1.3,3.2c4.5,3.8,4.6,4.6-.2,8.4-1.5,1.2-.4,1.9-.2,2.9.3.2.4.5.3.7-.2.1-.3.2-.4.2Z" fill="#afafaf"/><g transform="matrix(-.99995 0.010037-.010037-.99995 151.77824 466.345751)"><path d="M94.9,241.9c-3.8-2-4.4-3.7.1-5.7c2.9-1.3,2.7-3.9-.1-5-3.4-1.4-3.7-2.9-1.3-5.4c1.9-1.9-.2-3.3-.7-4.8.2-.3.6-.4.9-.2.1,0,.1.1.2.2c2,1.5,3.6,3.1,1.1,5.5-1.2,1.1-1.1,2.1.3,3.2c4.5,3.8,4.6,4.6-.2,8.4-1.5,1.2-.4,1.9-.2,2.9.3.2.4.5.3.7-.2.1-.3.2-.4.2Z" fill="#afafaf"/><path d="M94.9,241.9c0-.4,0-.7,0-1.1c2.1,3.1.2,6.7-2,6.5-4.6-.5-3.5,2-4.3,4.6-1,3.2-3.7,3.9-6.7,2c.2-.3.6-.4,1-.2.1,0,.1.1.1.1c3.3,0,4.9-1.2,4-4.8-.5-2.2.6-3.8,2.9-3.1c3.8,1,4.5-1.3,5-4Z" fill="#afafaf"/><path d="M68,253.8c-.4,0-.7,0-1.1,0c.2-1.9,1.2-3.1,3.2-2.9c2.5.3,1.6,2.4,1.9,3.9-.3.4-.7.4-1.1,0-.6-1.3-1.1-3.2-2.9-1Z" fill="#afafaf"/><path d="M83,253.8c-.4,0-.7,0-1.1,0-1.3-.6-2.7-1.6-3,.9-.9.2-1.4.1-1-1c.1-1.3-.2-2.8,1.8-2.9c2.1,0,3.1,1.1,3.3,3Z" fill="#afafaf"/><path d="M78,253.8c.3.3.6.6,1,1-2.6,3.1-5.3,3-7.9,0c.3,0,.7,0,1.1,0c2.1,1.5,4.1,1.3,5.8-1Z" fill="#afafaf"/></g><path d="M94.9,241.9c0-.4,0-.7,0-1.1c2.1,3.1.2,6.7-2,6.5-4.6-.5-3.5,2-4.3,4.6-1,3.2-3.7,3.9-6.7,2c.2-.3.6-.4,1-.2.1,0,.1.1.1.1c3.3,0,4.9-1.2,4-4.8-.5-2.2.6-3.8,2.9-3.1c3.8,1,4.5-1.3,5-4Z" fill="#afafaf"/><path d="M94,220.8c-.4,0-.7,0-1.1,0-3.6,1.1-6.7,1.8-5.7-4.1.4-2.4-2.1-2.9-4.3-2.9-.3-.2-.4-.5-.3-.7s.2-.3.3-.3c2.7-1.3,5.2.6,5.3,2.3.4,4,3,4.7,5.8,5.7Z" fill="#afafaf"/><path d="M57.9,246.8c3.2-1.9,5.5-1.6,4.9,2.8-.6,3.7,1.4,4.1,4.1,4.2.2-.3.6-.3.9-.1.1,0,.1.1.1.1-5.1,1.8-7.6.1-6.9-5c.2-1.2.4-1.9-1.1-2-.5.6-1.4.6-2,0c0,0,0,0,0,0Z" fill="#afafaf"/><path d="M68,253.8c-.4,0-.7,0-1.1,0c.2-1.9,1.2-3.1,3.2-2.9c2.5.3,1.6,2.4,1.9,3.9-.3.4-.7.4-1.1,0-.6-1.3-1.1-3.2-2.9-1Z" fill="#afafaf"/><path d="M83,253.8c-.4,0-.7,0-1.1,0-1.3-.6-2.7-1.6-3,.9-.9.2-1.4.1-1-1c.1-1.3-.2-2.8,1.8-2.9c2.1,0,3.1,1.1,3.3,3Z" fill="#afafaf"/><path d="M57.9,246.8c.7,0,1.4,0,2,0-3.6,2.2-5.1.1-6-3c.1-.3,0-.7.2-.9.6-.5.7,0,.8.4.5,1.6,1.6,2.9,3,3.5Z" fill="#afafaf"/><path d="M78,253.8c.3.3.6.6,1,1-2.6,3.1-5.3,3-7.9,0c.3,0,.7,0,1.1,0c2.1,1.5,4.1,1.3,5.8-1Z" fill="#afafaf"/><path d="M82.9,212.8c0,.3,0,.7,0,1-.9.6-1,3.8-3,1c1.1-.6,2.1-1.3,3-2Z" fill="#afafaf"/><path d="M66.1,241c8.4,3.9,12.6,3.7,16.5-.3c3.2-3.3,3-7.2-.9-15.9c4.1,2.9,6.1,6.3,5.1,10.7-1.2,5.3-4.6,9-9.9,10.1-3.9.7-7.6-.7-10.8-4.6Z" fill="#afafaf"/><path d="M66.1,241c8.4,3.9,12.6,3.7,16.5-.3c3.2-3.3,3-7.2-.9-15.9c4.1,2.9,6.1,6.3,5.1,10.7-1.2,5.3-4.6,9-9.9,10.1-3.9.7-7.6-.7-10.8-4.6Z" transform="matrix(-.983123 0.182945-.182945-.983123 191.733326 449.475973)" fill="#afafaf"/></g></g><g id="edSjopR3myh38_to" transform="translate(10.054192,80.679955)"><g id="edSjopR3myh38_tr" transform="rotate(0)"><g id="edSjopR3myh38_ts" transform="scale(1,1)"><g id="edSjopR3myh38" transform="translate(-2,-68)" opacity="0.31"><path d="M0,71.9c1.9-7.1,8.3-7.8,13.8-9.4c16-4.5,32-8.8,48.1-13.1c2.4-.6,4.8-1.3,7.1.5-.2.8-.8,1.3-1.5,1.5-5.6.5-11.1,1.3-16.6,2.4-2.1.4-3.5.7-16,4-4,1-12.5,3.3-23,7-5.1,1.8-9.2,3.4-9,5c.1.8,1.3,1.3,3,2c3.4,1.5,6.6,3.4,10,5c4.9,2.3,9.6,4.9,14,8c1.7,1.2,3.1,2.3,4,3c.5,1,.7,1.8.5,1.9-.2.2-.8-.3-1.5-.9-4.4-3.4-9.1-6.4-14-9-5.4-2.9-11.1-5.2-17-7c2.4,13.7,6.4,27,11.8,39.8-.1.5-.4.9-.7,1.3C7.5,101.8,3.4,89,0.9,75.9l-.9-4Z" fill="#afafaf"/><path d="M16,113.9c2,1.3,3.8.9,6,.1c3.5-1.2,7-3.1,11-2.1-5.8,2-11.4,5.8-18,3c0-.5.5-.9,1-1Z" fill="#afafaf"/><path d="M16,114l-1.1,1c-.8.1-1.5-.3-2-1l-.1-1c0-1,1-.1,1,0v0c.2.1.5.1.8,0h.2c.3-.1.6-.1,1-1c0,0,.4.1.4.4c0,.2-.1.4-.3.6.1.3.1.6.1,1Z" fill="#afafaf"/><path d="M79,73.9c-3.1-5.9-5.2-12.3-6-19-.3-.2-.4-.5-.3-.7s.2-.3.3-.3c2.8,6.4,4.8,13.1,6,20Z" fill="#afafaf"/><path d="M73,53.9c0,.4,0,.7,0,1.1-1.3-.7-1.5-3.6-4-2-.2.3-.7.4-1,.2-.6-.8-.2-1.5,0-2.3l1-1c2.1.2,3.8,1.9,4,4Z" fill="#afafaf"/><path d="M16,111.9c3.6-7.1,9-12.9,14-19c.5,3.1-2.2,4.7-3.6,6.8-3.2,4.6-6.9,8.8-10.4,13.2c0-.3,0-.7,0-1Z" fill="#afafaf"/><path d="M53,78.9c5.7-8.2,9.8-17.5,15-26c.3,0,.7,0,1,0-.4,4.4-3.7,7.3-5.5,10.9C60.8,69,57.8,74,54.9,79c-.6,1.2-1.4,2.3-1.9-.1Z" fill="#afafaf"/></g></g></g></g><g id="edSjopR3myh46_to" transform="translate(208.382516,170.481308)"><g id="edSjopR3myh46_ts" transform="scale(1,1)"><g transform="translate(-208.382516,-170.481308)"><path d="M160.9,0.8c0-.3,0-.6,0-.8h42c0,.3,0,.6,0,.8-1.2,1.5-2.9,1.5-4.5,1.5-11,.1-22,.1-32.9,0-1.7.1-3.5.1-4.6-1.5Z" fill="#e4dfea"/><path d="M223.9,340.9h-41c-9.8-.1-19.7-.8-29.5,0-12.2,1-22.3-10.1-19.3-24.5c2.2-10.2,3.9-20.6,5.8-30.9.6-3.3,0-5-4.3-4.9-13.6.4-27.3.4-41,.1-27.8-.7-48.3-13.7-61.3-38.3-1.5-2.8-2.8-3.7-5.8-3.7-4.4,0-8.8.9-13.1-1.5-6.4-3.5-9.3-8.6-9.3-15.6-.1-12.8.1-25.6-.1-38.4-.2-9.5,8.2-18.3,17.2-17.4c3.5.3,7-.3,10.5.1c10,1.3,18.8-1,26.2-8.1.7-.5,1.6-.6,2,.2s-.3,1.4-.9,1.9l-7.6,5.9c3.5,0,5.9,0,8.4,0c10.1,0,17.1,7,17.2,17c0,9.3.1,18.6.2,27.9.4,3.6,1.4,7.1,1.3,10.8-.3,10.8-7.9,18.2-18.7,18.7-7.2.3-14.2-1.3-21.3-1-1.2,0-3.2-1.1-3.4,1.4c8.8,19,23.6,30.7,43.8,35.5c3.4.8,6.8,1.3,10.3,1.4c15.5.3,31,.4,46.4.7c3.6.1,5-.5,5.6-4.7c2.7-17.3,6.2-34.4,9.3-51.6.8-4.2,1-8.4,4.3-11.7c3.3-3.5,8-5.4,12.9-5.1c13.6.8,27.3.2,40.9.4c7,.1,14,.3,20.9,1.1c4.4.5,8.9,2.4,11.6,5.8c7.3,9.2,16,14.4,28.1,12.2c2-.2,4,.1,5.9.8c3.7,1.2,5.6,3.9,4.3,7.6-1.9,5.3-2.5,10.8-4.2,16.1-1,3.1-.4,4.8,3.2,4.3c1-.1,2-.1,3,0c5.1.1,7.4,3.3,5.7,8.2-1.5,4.4-3.4,8.7-5.2,13.2c1.4,1.1,2.9.7,4.3.5c10.1-1.2,19.4,4.6,29.7,2.8c3.6-.6,5.2-.9,5-5-.4-7.6-.1-15.3-.1-23c0-10.9,7.1-18.5,17.9-18.7c12.5-.3,25-.3,37.5,0c10.5.2,17.5,7.8,17.6,18.3c0,3.6,0,7.2,0,11.1c20.1-16.7,21.1-60.1-12.9-77.5-.1-3,1.8-3,3.9-2.4c1.7.6,3.2,1.8,4,3.4C404.6,196,412.6,211,411.7,230c-.6,12.1-4.5,23.2-13.3,32-2.6,2.3-3.9,5.7-3.6,9.2.3,5.7.1,11.3,0,17-.1,9.5-7.1,16.9-16.6,17.1-13.2.2-26.3.2-39.5,0-9.9-.2-16.9-7.9-16.9-18c0-6.9,0-6.6-6.7-7-6.5-.3-10.4.4-14.2,7.7-7.7,15.1-17.8,28.9-27.5,42.9-4.4,6.3-11,9.7-19.1,9.5-10.1.2-20.3.5-30.4.5Z" fill="#3b1b6a"/><path d="M160.9,0.8h42c8.8.7,13.9,5.8,15.1,14.6.6,4.8.7,9.6.3,14.4-.2,3.7,1.3,5.2,4.4,6.4c3.8,1.5,7.9,2.9,10.8,7.7-4.9-1.2-8.3-3.3-11.7-5.3-2.5-1.4-3.5-1.1-3.5,2.1.1,5.7.2,11.3-.2,17-.7,12-8.9,15.7-17.5,16.1-12.5.5-25,.3-37.4.1-11.1-.2-18.3-7.8-18.3-18.9c0-7,0-14,0-21.5-22.1,7.3-38.9,21-52.4,40c4.3-.4,8-1.3,11.5,1.3s3.9,6.3,4.9,9.8c2.4,8.6,4.5,17.4,7.3,25.9c2.3,7-.3,14.1-8.3,15.7-10.3,2.1-20.3,5.9-30.5,8.5-2.2.6-2.8,1.2-2.4,3.1.5,2.6,1.5,5.1,1.5,7.7c0,4.8,2.5,4.6,6,4.1c14.7-2.1,28.2,1.8,40.7,9.4.6.4,1.7.7,1.2,1.8-.8,1.6-1.9.7-2.9.2-5.9-3.5-12.4-6-19.1-7.5-10-2.3-19.9-2.5-29.7.9-.9.3-1.9.5-2.8.6-1.2.4-2.6,1.3-3-.9c6.4-2,8.3-6,6.1-12.4-.6-1.6-.1-3.6-.1-5.5-6.4,1.6-12.5,3.3-18.7,4.8-7.5,1.8-10.9-2.4-12.4-7.5-2-7.2-4.2-14.3-6.3-21.5-3.6-5.2-4.3-11-3.5-17c.4-3.3,3-5,5.5-6.7c3.8-2,8.1-2.5,12.2-3.7c8.5-2.9,17.4-4.5,25.9-7.3c1.4-.6,2.9-.6,4.4-.3c4.4-.4,7.6-1.5,10.6-5.9c12.7-18.4,29.7-31.8,51-39.3c2.5-.9,3.4-2,3.5-4.8.1-5.4-1.1-10.8,1.5-16.1c3-6.2,7.4-9.6,14.3-10.1Z" fill="#3b1b6a"/><path d="M348.7,116.9c9.8,4.7,20.1,7.9,30.2,11.6c6.8,2.4,11.6,6.5,14,13.4c1.7,4,1.7,8.4.1,12.4-.5,1-1.2,1.9-2,2.6-3.8,8.8-7.2,17.8-10,27-2.4,5.2-4.4,10.6-10.1,13.4-4.4,2.1-8.7,3.5-13.6,1.6-12.4-4.8-25-9.1-37.4-14.1-8.5-3.6-12.8-13.2-9.6-21.9c4.4-11.9,8.9-23.8,13.2-35.7c1.9-5.2,5.6-8.6,11.1-11.2-7.3-6.6-15.9-11.5-25.2-14.5-8.8-2.9-18-4.1-27.2-3.6-3.4.2-6.8.6-4.4,5.8c1.1,2.4.9,5.4,1.5,8.1.2,1.1.6,2.2-.6,2.5-1.8.5-1.5-1.1-1.8-2.1-1.9-9.5-4.9-18.6-9.1-27.3-5.3-10.6-12.3-20.2-20.7-28.5-.9-.9-3.3-1.7-1.6-3.4c1.6-1.6,2.5.6,3.5,1.5c10.8,9.8,19.1,22.2,24.2,35.9c1.8,4.9,4.6,5.9,9.3,5.4c20.5-2,38.4,4.5,53.8,17.9c3.7,3.5,8.5,1.1,12.4,3.2Z" fill="#3b1b6a"/><path d="M67,154c.8,1.1,2,.8,3,.9L60,160c.5-1.2.7-2.2-1.1-2.1c2.4-1.8,5-3.4,8.1-3.9Z" fill="#452671"/><path d="M239.9,338.6c-29.1.1-58.3.3-87.4.1-11.4-.1-17.7-9.8-15.4-22c4.5-24.2,8.4-48.6,13-72.8c1.7-8.7,3-17.5,4.9-26.1c1.3-5.8,7-10.1,13.9-9.5c19.1,1.5,38.3-.2,57.4,1.3c6.8.6,12,2.9,16.6,7.6c2.2,2.3,4.6,4.3,8,7.4-9.7,0-18.1.5-26.4-.1-13.6-1-27.3-.6-40.9-.5-7.1,0-11.9,6.3-13.6,15-4.5,23.3-9.3,46.5-13.9,69.8-.5,2.6-1.1,5.1-1.7,7.6-.3,1.1-.7,2.5.3,3.2s2.2.1,3.2-.6c8.5-5.3,17-10.4,25.3-16c7.8-5.2,15.8-8.8,25.6-8.4c8.5.4,17.2.8,25.8-.5c5.9-.9,9-4.9,11.9-8.9c3.2-4.5,7-6.5,12.5-6.4c8.3.2,16.6.2,25,.2c1.3,1.7.2,3.3-.6,4.6-9.5,15.4-18.9,30.9-29.1,45.8-2.5,4-6.4,6.9-11,8.2-1.3.1-2.4.4-3.4,1Z" fill="#fecd92"/><path d="M41.4,235.8c-7,0-14,.1-21,0C13.7,236,8.2,230.7,8,224c0-.2,0-.4,0-.6-.1-14.1-.1-28.3,0-42.4.2-6.5,5.4-11.8,12-12c14.3-.1,28.6-.1,42.9,0c6.6.2,11.8,5.4,12,12c.1,14.3.2,28.6,0,42.9-.2,6.6-5.5,11.8-12.1,12-7.1,0-14.2-.1-21.4-.1Z" fill="#fefefe"/><path d="M324.7,268.4c0-6.5-.1-13,0-19.5.2-8,5.9-14,14-14.1c13.1-.2,26.3-.2,39.4,0c7,.1,12.9,5.4,13.6,12.4c1.4,14.6,1.4,29.2-.1,43.8-.6,6.7-6.3,11.8-13,11.7-13.5.2-27,.2-40.4,0-7.8-.1-13.4-5.9-13.6-13.8c0-6.8.1-13.6.1-20.5Z" fill="#fefefe"/><path d="M159.3,314.5c5.8-11.1,10.8-21.1,16.3-30.8c4-7,7.7-14.1,11.3-21.2c3.5-6.9,7.3-9,15.1-8.3c2.8.3,5.6.5,8.5.6c22.1.4,44.3.7,66.4,1c1.2,0,2.3,0,3.5.1c5.7.5,5.8,2.1,4.5,7.7-2.5,11.3-9.3,13.9-19.5,12.2-2.1-.4-4.3.2-6.5-.1-6.8-.9-11.6,2.7-14.9,7.8-3.8,5.9-8.9,8.3-15.6,8.2-4.7-.1-9.4.5-14-.1-13.6-1.6-25.1,3-35.9,10.7-5.7,4.3-12,7.7-19.2,12.2Z" fill="#fefefe"/><path d="M159.8,305.3c1.1-5.8,2-11.7,3.2-17.5c3.6-17.3,7.3-34.5,10.9-51.8c1.2-5.8,5.2-9,11-9.1c28.5-.6,56.9,1,85.3,1.1c7.7,0,8.3.9,6.6,8.4-1.1,4.8-2.9,9.4-3.8,14.2-.5,2.4-1.6,2.4-3.3,2.3-21.9-.6-43.9-1.1-65.8-1.9-11.4-.4-15.4,1.9-20.3,11.6-7.1,14-14.6,27.8-21.9,41.6-.3.6-.5,1.2-.8,1.9l-1.1-.8Z" fill="#fefefe"/><path d="M241.9,336.8c5.2-1,9-4.5,11.7-8.6c8.5-13.1,17.3-26.1,25-39.7c1.8-3.1,4.7-5.6,5.3-9.4c4-.1,8-.2,11.9-.1c4.6.1,6.5,3.5,4.1,7.3-9.1,14.2-18.2,28.5-27.6,42.5-4.3,6.4-10.9,9.3-18.5,10-3.2-.7-6.4-.1-9.6-.3-1-.4-2.5.2-2.3-1.7Z" fill="#fec077"/><path d="M181.9,70.9c-6.7,0-13.3,0-20,0-7.7,0-14-6.3-14-14c0,0,0,0,0,0-.1-13.1.1-26.3,0-39.4-.1-7.8,6.1-14.2,13.9-14.3c0,0,0,0,0,0c13.3-.5,26.6-.2,39.9-.1c7.3.1,14.1,7.1,14.1,14.3c0,13.1,0,26.3,0,39.4-.1,7.7-6.3,14-14,14.2-6.6,0-13.3-.1-19.9-.1Z" fill="#fefefe"/><path d="M101.1,76.2c-5.8,10.3-11.5,20.2-17.2,30.2-4.8,8.5-7.9,9.5-16.7,4.8-9.3-5-18.5-10.2-27.7-15.4-.9-.5-2.6-.6-2.4-2.1s1.8-1.7,3.1-2c7.4-2.1,14.8-4.3,22.2-6.3c10.6-2.9,21.2-5.7,31.7-8.8c2.3-.6,4.7-.7,7-.4Z" fill="#fecd92"/><path d="M50,138c5.1-6.8,10.1-13.7,15.2-20.5c1.4-1.8,2.7-2.6,5.3-1.5c4.8,2.3,10.6.6,13.4-4c1.5-2.2,2.6-1.8,4.3-1.1c7.9,3.1,15.8,6.2,23.9,10-20.2,7.5-41.1,12.3-61.7,18.4L50,138Z" fill="#fecd92"/><path d="M62,111.9c2.8.6,2.9,2,1.3,4-4.9,6.2-9.6,12.5-14.5,18.7-1.9,2.4-3.1,1.7-3.9-1.1-2.4-8.8-5.5-17.5-7.2-26.5c2-2,4.4-1,6.5-.4c6,1.6,12,3.2,17.8,5.3Z" fill="#fecd92"/><path d="M106.8,87c2.4,9,4.7,18,7.2,26.9c1,3.5-.4,4.1-3.2,3-7.3-2.9-14.4-6.1-21.8-8.7-3.1-1.1-1.5-2-.5-3.3c4.9-6.4,11-11.6,16.5-17.4.4-.6,1.1-.7,1.8-.5Z" fill="#fecd92"/><path d="M62,111.9c-6.8.1-13-2.9-19.5-4.3-1.6-.4-3.2-.6-4.8-.6-.8-2.3-1.7-4.5-2.4-6.8-.3-.9-.3-1.9.2-2.8.9-1.1,1.7.2,2.5.6c8,4.6,16,9.3,24,13.9Z" fill="#fdbf77"/><path d="M106.8,87c-5.9,6.1-11.4,12.7-18.3,17.8c4.9-8.9,9.8-17.8,15.1-27.4c1.2,3.7,2.2,6.7,3.2,9.6Z" fill="#fdc077"/><path d="M382.4,170.9c-2.6,6.8-4.3,13-7.1,18.7-2.9,5.8-10.7,8.5-17.2,6.3-12.5-4.2-24.8-8.7-37-13.8-7.2-3-11.4-11.4-7.6-20.2c1.1-2.6,3.4-3.1,5.3-4.1c8.1-4.4,16.4-8.4,24.6-12.7c3-1.5,4.4-1.2,5.8,2.2c3.1,7.5,5.9,15,8.8,22.5c2.1,5.6,5.4,7.3,11.2,5.5c4-1.2,8-2.7,13.2-4.4Z" fill="#00d2ad"/><path d="M317.5,155.2c-1.6-2.3-.1-4,.5-5.5c2.5-7.2,5.3-14.4,8.1-21.5c3.4-8.6,11.4-11.9,20-8.7c11.2,4.2,22.4,8.3,33.6,12.3c9,3.3,11.4,11.2,9.8,20.4-2.3,13.6-11.4,18-22.7,21.2-3.8,1.1-4.8-1.7-5.7-3.9-3.2-7.5-6.2-15.2-9.1-22.8-2.6-6.6-4.5-7.2-10.6-3.9-7.9,4.4-16,8.3-23.9,12.4Z" fill="#c6e6fe"/><path id="edSjopR3myh67" d="M159.3,218.8c1-4.4,3.9-6.7,8.3-6.7-.4,2.6-3.4,1.2-4.5,2.9-.9,1.4-2.4,2.5-3.8,3.8Z" fill="#3d1d6a"/><path d="M30,203.3c0-4.5-.1-9,0-13.5.1-3.6,2.4-4.9,5.4-2.7c6.6,4.6,13,9.4,19.5,14.1c2.2,1.6,2.8,2.7,0,4.6-6.3,4.3-12.4,8.9-18.6,13.4-1.5,1.1-2.9,2.1-4.9.9s-1.2-2.9-1.2-4.4c-.3-4.1-.2-8.2-.2-12.4Z" fill="#3d1c6a"/><path d="M356.3,279.8c4.2.4,6.8-1.8,9.1-4.1c2.9-2.8,5.3-2.9,7.9.2c2.4,2.8,4.9,5.4,7.2,8.2c2,2.4,1.7,4.3-1.1,6.1-6.3,4.1-14.3,3-21.3-2.5-7.8-6-14.1-13.8-18.2-22.7-2.3-5.1-1-12.1,3-15.8c2-1.8,3.7-1.9,5.6,0c1.3,1.3,2.6,2.6,3.9,3.9c6.8,6.9,6.8,6.9.5,13.9-2.7,3-2.6,6.4-1.6,9.8.7,2.4,2.7,3.5,5,3Z" fill="#3b1c6a"/><path d="M331.6,246.1c.7-5,.7-5,3.8-5.3-1.1,1.5-2.4,3.4-3.8,5.3Z" fill="#482a74"/><path d="M238.4,267.9c-10.6,0-21.2-1.6-31.8-1.1-1,0-2.6.6-2.6-1.3c0-1.7,1.3-1.7,2.5-1.6c13.9,1.6,27.9.6,41.8,1c1.5,0,3.5,0,3.4,1.9-.1,1.8-2.1,1-3.2,1-3.5.1-6.8.1-10.1.1Z" fill="#3d1d6b"/><path d="M217.4,275.8c5.3,0,10.6,0,15.9,0c1.1,0,2.5-.1,2.6,1.6c0,1.8-1.5,1.4-2.6,1.4-10.1,0-20.2,0-30.3-.2-1.5,0-4,.3-3.8-2c.2-1.9,2.4-1,3.7-1c4.8-.1,9.6,0,14.4,0l.1.2Z" fill="#3c1c6a"/><path d="M265.4,265.6c2.1.9,6.2-1.3,6.2,1.7s-4,1.4-6.2,1.4c-2.1,0-6.2,1.6-6.2-1.4s4.1-.7,6.2-1.7Z" fill="#3b1c6a"/><path d="M238,241.8c-6.5,0-12.9,0-19.4,0-.9,0-2.7.7-2.6-1.2.1-1.5,1.6-1.3,2.8-1.2c13.1.9,26.2.3,39.4.5c1.4,0,3.3,0,3.3,1.4c0,1.8-2,1.6-3.5,1.6-6.6,0-13.3,0-19.9,0l-.1-1.1Z" fill="#3d1d6b"/><path d="M198.8,238.6c2.1,1.4,6.6-2,6.7,1.9.1,2.5-4.5,1.2-6.8,1.1-2.5-.1-6.9,1.8-7-1.6c0-2.5,4.6-.5,7.1-1.4Z" fill="#3b1b6a"/><path d="M197.6,39.6c-1.7-4.8-3.3-9.5-5-14.2-.5-1.5-1.1-3.2-3.4-2.3-5.6,2.2-11.3,4.4-17,6.4-1.8.7-2.7,1.1-1.8,3.4c2.2,5.2,4.1,10.6,6,15.9.7,2,1.3,4.2-.4,6-2,2.2-5.1,2.9-7.8,1.8-2.9-1.1-3.6-4.3-.7-5.7c6.6-3.1,4.5-7.1,2.5-11.8-1.5-3.4-2.4-7-3.6-10.6-1.1-3.2-.1-5.5,3.1-6.7c5.4-1.9,10.8-3.7,16.2-5.6c4.2-1.5,6.7-.4,8.2,4c2.3,7.2,4.9,14.4,7.6,21.5c1.2,3.2-1.2,4.4-2.9,5.5-2,1.2-4.5,2.2-6.8.2-1.7-1.5-1.4-3.5-.6-5c1.1-2.1,3.8-2.4,6.4-2.8Z" fill="#3b1c6a"/><path d="M370.3,141.8c5.2-.1,8.5,3.3,8.5,8.6c0,4.4-4.2,8.6-8.5,8.4-3.8-.1-8-4.5-8.1-8.5-.2-4.5,3.3-8.4,7.9-8.6.1.1.1.1.2.1Z" fill="#3c1d6b"/><path d="M342.7,124c-3.4,1.5-6.6.2-8.9,3.4c1.2-4.7,2.6-5.2,8.9-3.4Z" fill="#40226f"/><path d="M33.2,189.2c6.5,4.6,12.4,8.8,18.3,12.9c1.7,1.2,1.2,2-.2,2.9-5.9,4.1-11.7,8.3-18.1,12.9v-28.7Z" fill="#fe938f"/><path d="M355.6,260.4c-3.1,3.5-7.2,6.1-8.1,11.5-4.8-5.5-7.4-11.1-4.8-18.1c1.3-3.4,2.8-4.4,5.5-1.3c2.4,2.7,4.9,5.3,7.4,7.9Z" fill="#fd86af"/><path d="M359.8,282.8c3.3-1.5,6.3-3.6,8.9-6.1.7.4,1.2,1.1,2.1,1c2.2,1.7,4.1,3.8,5.7,6.1c2.4,3.5,1.7,5.3-2.5,6-5.6,1-10.3-.9-14.2-4.9c0-.8,0-1.4,0-2.1Z" fill="#fd86af"/><path d="M370.9,277.7c-1.6,1.7-1.9.3-2.1-1c1.4-1.2,1.6.1,2.1,1Z" fill="#fe90b5"/><path d="M359.8,282.8c1,.7,1,1.3,0,2-.6-.5-1.2-1-1.8-1.5l1.8-.5Z" fill="#fe9abd"/><path d="M168.8,26.6c5.7-4.7,13.2-5.1,19.5-8.5.8-.4,1.6.1,2,1c.5,1.1-.6.9-1,1.1-6.8,2.3-13.3,5.4-20.5,6.4Z" fill="#f9f8fa"/><path d="M171.1,54.8c-1.4.1-2.1-.2-2.1-1.3-.1-2.1,1.7-2.2,3-2.5.8-.2,1.8,0,1.8,1.1c0,2-2,1.9-2.7,2.7Z" fill="#f79f9e"/><path d="M196.8,44.8c-1.2.7-2.9,2.2-3.7.5-.8-1.6,1.1-2.3,2.7-2.3c1.8-.2,1.8.6,1,1.8Z" fill="#fea8a4"/><path d="M196.8,44.8c.1-.8-.3-1.5-1-1.9c1.1-1.4,2.2-.8,2.7.4.6,1.4-.6,1.6-1.7,1.5Z" fill="#ea8d92"/><path d="M370.6,144.8c4.2,0,5.5,2.5,5.5,5.8.1,3.6-2.7,5-5.5,5-3.3.1-5.8-2.1-5.5-5.5.3-3,2-5.7,5.5-5.3Z" fill="#fccc92"/><g id="edSjopR3myh89_to" transform="translate(216.598488,316.300003)"><g id="edSjopR3myh89" transform="translate(-216.598488,-316.300003)"><path d="M221.3,322.7c-3.5-3.8-7.2-7.5-8.6-12.8c3.3,4,6.5,8,9.8,11.9l-1.2.9Z" fill="#44236b"/><path d="M222.2,314.6c-3.1-.1-3.6-1.7-4.2-3.8c2.5.2,3.1,1.7,4.2,3.8Z" fill="#41206b"/><path d="M210.7,314.9l5.4,7c-3.1-1.4-5.5-3.2-5.4-7Z" fill="#3b1b6a"/></g></g><path d="M19.7,173.7c-2.2,1.6-3.8,3.9-5.6,6c.1-3.8,2.6-5.2,5.6-6Z" fill="#492b74"/><path d="M159.9,10.3c-2.2,1.4-3.6,3.6-5.6,5.1c0-3.5,2.1-5,5.6-5.1Z" fill="#4c2f77"/><g id="edSjopR3myh95_to" transform="translate(287.5,216.699997)"><g id="edSjopR3myh95" transform="translate(-287.5,-216.699997)" opacity="0.13"><path d="M295.7,220c-.3.6-.4.8-.5.9-1.7,1-3.4,2.2-5.5,2.3-.2,0-.4-.7-.5-1.1c2.1-.6,3.8-2.6,6.5-2.1Z" fill="#492b74"/><path d="M288,213c.6,2.7-.7,4.4-3.3,5.3c1.1-1.7,2.2-3.5,3.3-5.3Z" fill="#462872"/><path d="M279.3,215.5l.6-5.3c1.4,1.9,1.1,3.6.7,5.4l-1.3-.1Z" fill="#52367b"/></g></g></g></g></g><g id="edSjopR3myh99_to" transform="translate(199.257195,126.85302)"><g id="edSjopR3myh99_tr" transform="rotate(0)"><g transform="translate(-199.257195,-126.85302)"><path d="M210.9,96.9c-3-.3-6,.6-8.3,2.6-9.9,7.7-19.9,15.3-29.8,23.1-2.7,2.2-5,4.8-5.9,8.3-.9.2-1.4.1-1-1c.9-3.5,3.1-6.6,6-8.7c9.4-7.2,18.7-14.6,28.1-21.9c4.2-3.4,9.5-4.9,14.8-4.4-.2,2.8-3,.6-3.9,2Z" fill="#afafaf"/><path d="M165.9,129.9c.3.3.7.7,1,1-2.6,9.5,3.7,15.6,8.7,22.1c1.4,1.8,3,3.4,3.3,5.9-4.3-4.5-8.2-9.3-11.7-14.5-2.9-4.3-3.4-9.8-1.3-14.5Z" fill="#afafaf"/><path d="M233.9,113.8h-1c-3-3.9-6.7-7.3-9-11.8-.3-.2-.4-.5-.3-.7s.2-.3.3-.3c4,3.6,7.4,7.9,10,12.8Z" fill="#afafaf"/><path d="M223.9,100.9v1c-3.8-3.2-7.7-5.8-13-5c.9-1.6,3.1-.4,4-2c3.1,1.9,7.2,2.2,9,6Z" fill="#afafaf"/></g></g></g><g id="edSjopR3myh104_to" transform="translate(219.864433,150.276398)"><g transform="translate(-219.864433,-150.276398)"><path d="M182.8,163.9c.1-9.8.4-19.6.2-29.4-.3-13,7.5-21.4,20.5-20.7c9.8.5,19.6,0,29.4,0c.2-.3.6-.4.9-.1.1,0,.1.1.1.1c3.6.7,7.1.1,10.8.9c6.5,1.4,12.2,9.9,12.2,16-.1,13.1.1,26.3,0,39.4-.1,9.3-7.7,16.8-16.9,16.7-12.5,0-25-.5-37.4.2-11,.6-19.1-6.8-19.4-18.7-.2-1.4-.3-2.9-.4-4.4Z" fill="#3b1c6a"/><path d="M253.9,150.2c0,6.2-.2,12.3.1,18.5.4,7.5-3.7,14.9-12.9,15.6-14.2,1-28.6,1.3-42.8-.2-8.6-.9-12.1-7.9-12.2-14.2-.3-13-.3-25.9,0-38.9.1-7.9,6.6-14.3,14.6-14.2.1,0,.3,0,.4,0c12.9.7,25.9.2,38.9.2c8.1,0,13.8,5.7,13.9,13.9c0,6.4,0,12.9,0,19.3Z" fill="#fefefe"/><path id="edSjopR3myh107" d="M198.4,121.2c-1.3,2.4-3.6,3.8-5.3,6.7-.7-4.9,3-5.3,5.3-6.7Z" opacity="0" fill="#482a73"/><g id="edSjopR3myh108_tr" transform="translate(219.949669,150.490242) rotate(0)"><g id="edSjopR3myh108_ts" transform="scale(1,1)"><g transform="translate(-219.949669,-150.490242)"><path d="M220.1,125.9c13.2-.4,24.2,10,24.5,23.2c0,.3,0,.6,0,.8-.1,14.9-9.9,25-24.7,25.2-14.1.2-24.4-10.5-24.6-24.9-.1-13.3,11.1-24.9,24.8-24.3Z" fill="#3b1b6a"/><path d="M237,152c5.2-.8,5.5,1.3,4.3,5-.9,2.7-2.6,4.8-3.9,7.3-.5,1-1.2,2.7-2.9,1.5-1.3-.9-3.2-1.6-2.5-3.7.9-2.7.8-5.5,1-8.3.2-3.3,3-1.3,4-1.8Z" fill="#8ccdfd"/><path d="M202.3,152c3.4-.8,5,.5,4.8,4.3.1,2,.5,3.9,1.3,5.7.9,2.5-1.2,2.6-2.3,3.5-1.9,1.6-2.6,0-3.3-1.2-1.7-2.4-3-5-4.1-7.7-1.6-4.2-.4-5.2,3.6-4.6Z" fill="#8ccdfd"/><path d="M237.3,148.9c-3.3.7-4.8-.3-4.5-4.1c0-2.1-.4-4.3-1.1-6.3-.8-2.4,1.5-2.2,2.3-3.1c1.1-1.3,2.2,0,2.8.9c1.7,2.4,3.2,5,4.4,7.6c1.6,4.3.5,5.7-3.9,5Z" fill="#8ccefe"/><path d="M202.8,148.8c-5.1.8-5.6-1-4.1-4.9c1-2.7,2.7-4.9,4-7.3.5-1,1.5-2.4,3.2-1.3c1.4.9,2.7,1.4,2.1,3.8-.8,2.5-1.2,5.1-1.2,7.8c0,3.5-3,1.5-4,1.9Z" fill="#8ccefd"/><path d="M213.3,152.2c5-1.3,5.5.7,5.7,4.5.3,5.2-3.4,5.3-6.3,5.1-4.5-.4-3.2-5-3.6-7.6-.7-4.1,3.3-1.4,4.2-2Z" fill="#8ccdfd"/><path d="M225.8,149c-4.3,1-4.3-1.4-4.7-4.7-.7-5.5,3.7-5.2,6.2-5.1c3.9.1,3.3,4.2,3.6,6.9.4,4.6-3.3,2.3-5.1,2.9Z" fill="#8acafa"/><path d="M226.7,152.1c1,.5,4.7-1.7,3.9,2.2-.5,2.7.7,7.4-4.2,7.5-3.2.1-5.7-1-5.5-5.6.3-4.1,1.9-4.8,5.8-4.1Z" fill="#8acafa"/><path d="M213.3,148.7c-.9-.7-4.7,2.1-4.1-1.7.4-2.7-.6-7.5,3.7-7.9c2.4-.2,6.6-.4,6.2,5.1-.4,4-1.2,5.6-5.8,4.5Z" fill="#8ccefe"/><path d="M221.1,168.2c.2-2-.8-4.7,2.8-4.3c1.5.2,3.5.2,3.2,2.3-.4,2.6-1.8,5.3-4.6,5.6-2.5.2-.8-2.4-1.4-3.6Z" fill="#85bff2"/><path d="M221.2,128.3c2.4,1.4,4.3,2.3,5.2,4.4.4,1.1,1.9,2.1.7,3.4-1.1,1.3-2.7.9-4.2.8-2,0-1.7-1.6-1.7-2.9-.1-1.6,0-3.2,0-5.7Z" fill="#85bff1"/><path d="M218.9,172.8c-2.1-1.6-3.7-2.4-4.7-3.6-.9-1.1-2.5-2.7-1.5-4.1.9-1.2,2.9-1.5,4.6-1.2c2.4.4,1.3,2.3,1.5,3.6.1,1.7.2,3.5.1,5.3Z" fill="#8cccfc"/><path d="M218.5,128.5c-.7,2.8,2.4,6.4-1.4,8.3-1.1.6-3.5.6-3.9-1-1.1-4.1,3.1-5,5.3-7.3Z" fill="#8ccefe"/><path d="M211.3,170.5c-1.6-.6-3.8-.1-3.9-2.5c0-.5,1.2-1.7,1.7-1.6c2.4.3,1.8,2.5,2.2,4.1Z" fill="#88c4f6"/><path d="M228.2,171.3c.6-2.2.8-4,2.7-4.5.4-.1,1.6,1.1,1.6,1.5-.5,1.8-2.3,1.8-4.3,3Z" fill="#89c7f8"/><path d="M211.6,130.5c-.7,1.5-.9,3.4-2.8,3.8-.3.1-1.3-.9-1.3-1.3.4-2.2,2.7-1.7,4.1-2.5Z" fill="#8bcbfb"/><path d="M228.9,131.4c1.7-.2,3.2-.3,3.3,1.6c0,.4-.8,1.3-1.3,1.3-2,.2-1.2-1.9-2-2.9Z" fill="#8ccefe"/></g></g></g></g></g></svg>