<?xml version="1.0" standalone="no"?>
<!DOCTYPE svg PUBLIC "-//W3C//DTD SVG 20010904//EN"
 "http://www.w3.org/TR/2001/REC-SVG-20010904/DTD/svg10.dtd">
<svg version="1.0" xmlns="http://www.w3.org/2000/svg"
 width="3431.000000pt" height="1000.000000pt" viewBox="0 0 3431.000000 1000.000000"
 preserveAspectRatio="xMidYMid meet">

<g transform="translate(0.000000,1000.000000) scale(0.100000,-0.100000)"
fill="#000000" stroke="none">
<path d="M28750 8581 c-25 -11 -97 -35 -160 -56 -222 -71 -370 -155 -486 -276
-77 -81 -111 -132 -145 -224 l-23 -60 1 -675 c0 -371 6 -947 12 -1280 6 -333
11 -837 11 -1120 0 -484 1 -519 20 -587 54 -196 64 -229 70 -243 4 -8 16 -33
26 -55 10 -22 39 -69 63 -105 185 -269 403 -480 646 -627 121 -73 333 -157
485 -191 228 -52 281 -55 771 -43 457 11 531 11 1110 4 311 -4 587 10 687 36
154 39 212 55 242 68 19 8 44 18 55 23 78 33 315 152 385 193 156 93 338 233
426 328 52 57 144 174 144 185 0 4 6 15 14 23 34 39 80 142 127 286 24 75 29
247 21 770 -9 578 -6 544 -60 655 -61 126 -218 262 -397 345 -22 10 -48 22
-57 26 -69 34 -375 129 -415 129 -4 0 -3 -312 2 -692 5 -381 7 -722 6 -758 -5
-128 -46 -339 -71 -364 -5 -5 -10 -16 -10 -22 0 -29 -78 -142 -147 -215 -145
-152 -356 -246 -658 -293 -85 -14 -228 -16 -961 -17 -975 0 -911 -5 -1124 81
-183 74 -344 242 -418 435 -47 122 -40 -119 -61 2175 -10 1076 -26 1892 -39
2065 -8 103 -13 107 -92 76z"/>
<path d="M26755 6081 c-3 -5 -1 -12 5 -16 5 -3 10 1 10 9 0 18 -6 21 -15 7z"/>
<path d="M26784 6039 c-3 -5 -4 -361 -3 -792 2 -723 1 -789 -15 -858 -51 -209
-139 -352 -289 -468 -69 -54 -193 -122 -257 -142 -117 -36 -177 -51 -280 -69
-109 -20 -160 -21 -925 -23 -745 -1 -816 0 -885 16 -170 40 -250 75 -352 154
-157 121 -255 294 -307 548 -5 22 -12 297 -16 610 -4 314 -11 669 -14 790 l-6
220 -439 -2 c-241 -1 -446 -5 -453 -8 -13 -4 -15 -121 -12 -868 4 -857 4 -862
-18 -927 -43 -132 -106 -221 -212 -302 -190 -143 -479 -227 -891 -258 -80 -6
-156 -16 -170 -22 -17 -7 -415 -12 -1299 -14 -1002 -3 -1277 -7 -1289 -16 -12
-10 -165 -14 -678 -16 l-663 -3 -5 23 c-6 30 -26 1551 -26 1966 0 281 -2 323
-15 329 -15 5 -119 -25 -182 -53 -17 -8 -34 -14 -38 -14 -20 0 -230 -110 -294
-154 -95 -65 -205 -175 -245 -246 -86 -152 -85 -139 -75 -1095 4 -451 8 -1066
9 -1366 0 -521 -1 -549 -20 -610 -35 -109 -60 -151 -134 -225 -124 -123 -268
-191 -511 -240 -204 -42 -403 -53 -1080 -60 -319 -3 -583 -8 -587 -10 -9 -6
25 -45 127 -147 260 -257 533 -398 878 -452 91 -14 159 -16 415 -12 300 4 390
12 542 44 75 16 187 47 225 64 11 4 49 20 85 35 116 47 218 106 335 193 63 46
275 254 313 306 12 17 44 59 70 95 74 99 171 269 177 309 3 20 10 61 17 91 6
30 14 159 17 285 l6 230 485 7 c267 4 645 12 840 18 615 20 1243 28 1264 18
18 -10 1357 6 1476 18 30 2 152 9 270 15 118 5 244 13 280 18 100 14 307 64
339 82 9 4 39 18 66 30 68 29 178 83 250 125 33 19 69 39 80 44 11 6 32 18 47
28 15 9 58 36 97 60 39 24 101 63 136 88 63 43 98 54 110 35 11 -18 291 -199
378 -245 90 -47 238 -112 317 -139 104 -35 267 -77 300 -77 13 0 31 -7 40 -15
14 -12 97 -13 637 -4 425 7 634 7 659 0 23 -6 135 -8 298 -5 409 7 580 24 727
70 26 8 52 14 59 14 19 0 193 75 315 137 471 237 763 520 878 853 53 151 52
145 49 745 -4 615 -6 635 -65 755 -37 74 -151 196 -237 252 -56 36 -147 84
-210 111 -19 9 -57 25 -84 36 -27 12 -54 21 -61 21 -7 0 -26 7 -41 15 -16 8
-37 15 -46 15 -10 0 -35 6 -55 14 -63 22 -123 34 -129 25z"/>
<path d="M12305 5879 c-873 -9 -946 -12 -1060 -32 -200 -37 -327 -81 -529
-186 -388 -203 -651 -455 -765 -731 -12 -30 -26 -64 -30 -75 -45 -110 -73
-342 -65 -535 3 -74 9 -446 13 -827 3 -380 9 -694 13 -698 4 -4 269 -2 590 3
321 6 907 12 1303 14 l720 3 3 -239 c2 -219 1 -244 -18 -298 -24 -71 -60 -130
-109 -181 -39 -42 -145 -127 -157 -127 -4 0 -15 -6 -23 -14 -9 -7 -43 -24 -76
-37 -33 -13 -64 -26 -70 -30 -5 -4 -26 -10 -45 -14 -19 -4 -39 -11 -45 -15 -5
-5 -32 -13 -60 -18 -27 -6 -68 -15 -90 -20 -51 -13 -212 -38 -340 -53 -81 -9
-495 -17 -1377 -28 l-77 -1 20 -35 c31 -52 173 -192 265 -261 98 -75 158 -111
253 -153 223 -98 368 -121 771 -121 475 0 730 19 895 65 28 8 59 16 70 19 45
11 121 40 196 75 25 11 49 21 52 21 13 0 215 125 272 169 86 65 271 253 341
346 117 157 167 243 183 315 5 25 18 80 27 122 16 71 17 137 10 810 -4 403
-11 972 -16 1263 -5 292 -9 746 -10 1011 0 359 -3 483 -12 492 -8 8 -56 12
-157 10 -81 -1 -470 -5 -866 -9z m153 -667 c17 -11 42 -1656 25 -1673 -8 -8
-172 -14 -535 -20 -288 -4 -671 -10 -853 -14 -196 -4 -335 -2 -343 3 -11 7
-16 117 -23 548 -9 484 -8 547 7 614 45 208 201 356 472 449 221 76 271 82
742 90 223 4 425 8 450 9 25 1 51 -2 58 -6z"/>
<path d="M8897 5837 c-2 -6 0 -332 5 -722 11 -797 8 -1008 -18 -1105 -65 -255
-268 -414 -624 -491 -157 -34 -281 -39 -1100 -48 -454 -5 -1122 -15 -1485 -21
-363 -6 -1110 -12 -1660 -13 -935 -2 -1005 -1 -1075 16 -153 37 -288 76 -328
96 -9 4 -35 16 -57 27 -42 19 -142 81 -161 99 -7 6 -25 22 -40 36 -78 66 -148
181 -179 294 -16 58 -19 104 -20 275 0 181 2 211 20 255 82 207 215 337 435
427 218 89 421 123 808 134 l232 7 -2 336 -3 336 -400 0 c-465 0 -524 -6 -800
-84 -53 -15 -311 -139 -395 -190 -19 -11 -42 -24 -50 -28 -31 -15 -208 -137
-270 -188 -219 -178 -353 -366 -425 -595 -71 -228 -55 -778 29 -956 7 -16 22
-47 32 -69 29 -60 128 -198 220 -305 128 -150 245 -253 397 -354 92 -61 295
-166 320 -166 7 0 17 -4 23 -9 23 -21 227 -72 389 -97 121 -19 543 -18 2230 5
418 6 1215 16 1770 22 1336 15 1564 21 1680 47 184 42 191 44 285 85 101 43
183 82 269 127 261 138 472 307 608 486 72 94 163 266 163 306 0 7 6 30 14 53
33 94 38 224 27 715 -6 261 -15 491 -20 510 -6 19 -14 51 -19 71 -47 184 -189
381 -351 485 -31 20 -67 44 -81 53 -22 15 -102 54 -195 96 -49 22 -154 55
-174 55 -10 0 -21 -6 -24 -13z"/>
<path d="M5509 2410 c-109 -13 -234 -85 -288 -164 -68 -102 -78 -205 -29 -302
69 -137 217 -218 398 -217 149 0 267 48 354 144 138 153 109 345 -70 464 -101
67 -219 91 -365 75z"/>
<path d="M25955 2409 c-126 -18 -237 -89 -302 -192 -22 -34 -27 -57 -31 -122
-6 -106 17 -162 98 -239 65 -62 122 -91 220 -112 82 -18 138 -18 220 0 87 19
135 40 199 89 113 87 155 213 114 340 -20 62 -114 163 -178 190 -22 10 -48 22
-57 27 -17 10 -168 31 -203 29 -11 -1 -47 -5 -80 -10z"/>
<path d="M19825 2404 c-96 -25 -195 -83 -249 -145 -42 -49 -76 -137 -76 -194
0 -104 81 -221 193 -280 187 -98 461 -64 590 74 70 75 89 121 89 212 0 115
-48 197 -153 265 -85 55 -125 66 -254 70 -66 1 -129 1 -140 -2z"/>
<path d="M25010 2404 c-146 -26 -277 -112 -332 -217 -17 -33 -22 -59 -22 -122
-1 -70 3 -87 29 -133 132 -241 521 -286 736 -85 97 91 130 223 81 326 -44 92
-144 177 -251 211 -53 17 -193 29 -241 20z"/>
<path d="M31213 2400 c-106 -25 -235 -125 -278 -215 -48 -103 -27 -228 55
-315 207 -220 635 -176 764 77 36 71 37 178 3 241 -35 66 -71 106 -129 144
-87 58 -162 78 -281 77 -56 -1 -116 -4 -134 -9z"/>
<path d="M18831 2384 c-230 -72 -347 -266 -266 -439 69 -145 215 -225 411
-225 83 0 113 5 169 25 106 38 178 93 233 178 24 38 27 51 27 137 0 95 0 96
-41 155 -48 72 -145 142 -233 168 -73 21 -235 22 -300 1z"/>
<path d="M30260 2391 c-8 -5 -30 -12 -49 -16 -39 -8 -122 -56 -165 -94 -58
-53 -107 -159 -105 -230 3 -127 116 -254 275 -310 79 -28 233 -29 321 -1 113
35 206 107 250 195 21 40 25 63 25 127 0 97 -25 150 -99 218 -97 88 -184 120
-333 119 -58 0 -112 -3 -120 -8z"/>
<path d="M19345 1751 c-111 -19 -242 -119 -288 -221 -28 -61 -28 -168 0 -230
76 -169 311 -265 527 -215 134 31 250 118 296 222 28 63 27 164 -1 229 -45
101 -175 195 -297 215 -63 10 -176 10 -237 0z"/>
<path d="M30746 1750 c-27 -5 -54 -14 -59 -19 -6 -6 -17 -11 -24 -11 -19 0
-113 -67 -146 -104 -70 -79 -94 -195 -61 -292 61 -181 314 -295 531 -239 153
39 260 121 303 233 59 156 -17 309 -199 398 -68 33 -81 36 -185 39 -61 2 -133
0 -160 -5z"/>
</g>
</svg>
